<svg width="128" height="128" viewBox="0 0 128 128" xmlns="http://www.w3.org/2000/svg" role="img" aria-label="StudentHub logo">
  <defs>
    <linearGradient id="bg" x1="0" y1="0" x2="1" y2="1">
      <stop offset="0%" stop-color="#4f46e5" />
      <stop offset="100%" stop-color="#6366f1" />
    </linearGradient>
  </defs>
  <rect x="8" y="8" width="112" height="112" rx="28" fill="url(#bg)" />
  <path d="M32 55c0-14 10-23 24-23 9 0 18 4 22 11l-11 7c-2-4-6-6-11-6-7 0-12 4-12 11 0 18 37 7 37 33 0 14-10 23-25 23-11 0-21-5-26-14l11-6c3 5 8 8 15 8 8 0 13-3 13-10 0-17-37-7-37-34Z" fill="#fff"/>
</svg>
